<!DOCTYPE svg PUBLIC "-//W3C//DTD SVG 1.1//EN" "http://www.w3.org/Graphics/SVG/1.1/DTD/svg11.dtd">
<!-- Uploaded to: SVG Repo, www.svgrepo.com, Transformed by: SVG Repo Mixer Tools -->
<svg width="800px" height="800px" viewBox="0 0 64 64" version="1.1" xml:space="preserve" xmlns="http://www.w3.org/2000/svg" xmlns:xlink="http://www.w3.org/1999/xlink" fill="#000000">
<g id="SVGRepo_bgCarrier" stroke-width="0"/>
<g id="SVGRepo_tracerCarrier" stroke-linecap="round" stroke-linejoin="round"/>
<g id="SVGRepo_iconCarrier"> <style type="text/css"> .st0{fill:#b8dde3;} .st1{fill:#2b4eff;} .st2{fill:#b8dde3;} .st3{fill:#0e1133;} .st4{fill:none;stroke:#0e1133;stroke-linecap:round;stroke-linejoin:round;stroke-miterlimit:10;} </style> <g id="_x34_0-Id_Card"/> <g id="_x33_9-Formula"/> <g id="_x33_8-Elbow"/> <g id="_x33_7-Diploma"/> <g id="_x33_6-Laptop"/> <g id="_x33_5-Brush"/> <g id="_x33_4-Baseball"/> <g id="_x33_3-Student"/> <g id="_x33_2-Highlighter"/> <g id="_x33_1-Ruler"/> <g id="_x33_0-Caliper"/> <g id="_x32_9-Ruler_Elbow"/> <g id="_x32_8-Abacus"/> <g id="_x32_7-Id_Card"/> <g id="_x32_6-Eraser"/> <g id="_x32_5-Pencil"/> <g id="_x32_4-Ink"/> <g id="_x32_3-Graduation_Cap"/> <g id="_x32_2-_Sling_Bag"/> <g id="_x32_1-Rugby_Ball"/> <g id="_x32_0-Clock"/> <g id="_x31_9-Certificate"/> <g id="_x31_8-Idea"/> <g id="_x31_7-Bookshelf"/> <g id="_x31_6-Formula"/> <g id="_x31_5-Bell"/> <g id="_x31_4-Magnifying_Glass"/> <g id="_x31_3-Calculator"/> <g id="_x31_2-Eyeglasses"/> <g id="_x31_1-Bus"/> <g id="_x31_0-Trophy"/> <g id="_x39_-Globe"/> <g id="_x38_-Basket_Ball"/> <g id="_x37_-Pen"/> <g id="_x36_-Board"> <g> <g> <rect class="st1" height="28.7" width="53" x="5.5" y="9.9"/> </g> <g> <rect class="st0" height="4.4" width="8.8" x="27.6" y="1.1"/> </g> <g> <rect class="st0" height="15.4" width="8.8" x="27.6" y="43"/> </g> <g> <rect class="st2" height="30.9" transform="matrix(-1.836970e-16 1 -1 -1.836970e-16 92.6897 28.6897)" width="4.4" x="29.8" y="45.2"/> </g> <g> <rect class="st2" height="4.4" width="61.8" x="1.1" y="5.5"/> </g> <g> <rect class="st2" height="4.4" width="61.8" x="1.1" y="38.6"/> </g> <g> <g> <path class="st3" d="M62.9,11c0.6,0,1.1-0.5,1.1-1.1V5.5c0-0.6-0.5-1.1-1.1-1.1H37.5V1.1C37.5,0.5,37,0,36.4,0h-8.8 c-0.6,0-1.1,0.5-1.1,1.1v3.3H1.1C0.5,4.4,0,4.9,0,5.5v4.4C0,10.5,0.5,11,1.1,11h3.3v26.5H1.1C0.5,37.5,0,38,0,38.6V43 c0,0.6,0.5,1.1,1.1,1.1h25.4v13.2h-9.9c-0.6,0-1.1,0.5-1.1,1.1v4.4c0,0.6,0.5,1.1,1.1,1.1h30.9c0.6,0,1.1-0.5,1.1-1.1v-4.4 c0-0.6-0.5-1.1-1.1-1.1h-9.9V44.1h25.4c0.6,0,1.1-0.5,1.1-1.1v-4.4c0-0.6-0.5-1.1-1.1-1.1h-3.3V11H62.9z M28.7,2.2h6.6v2.2h-6.6 V2.2z M2.2,6.6h25.4h8.8h25.4v2.2h-3.3h-53H2.2V6.6z M46.3,61.8H17.7v-2.2h9.9h8.8h9.9V61.8z M35.3,57.4h-6.6V44.1h6.6V57.4z M61.8,41.9H36.4h-8.8H2.2v-2.2h3.3h53h3.3V41.9z M57.4,37.5H6.6V11h50.8V37.5z"/> </g> <g> <path class="st3" d="M11.5,32.9c0.2,0.1,0.4,0.2,0.6,0.2c0.4,0,0.7-0.2,0.9-0.5l5.7-9.5l3.4,5.2c0.2,0.3,0.6,0.5,0.9,0.5 c0.4,0,0.7-0.2,0.9-0.5l6.6-11c0.3-0.5,0.1-1.2-0.4-1.5c-0.5-0.3-1.2-0.1-1.5,0.4L23,25.5l-3.4-5.2c-0.2-0.3-0.6-0.5-0.9-0.5 c-0.4,0-0.7,0.2-0.9,0.5l-6.6,11C10.8,32,11,32.6,11.5,32.9z"/> </g> <g> <path class="st3" d="M36.3,18.8h8.8c0.6,0,1.1-0.5,1.1-1.1c0-0.6-0.5-1.1-1.1-1.1h-8.8c-0.6,0-1.1,0.5-1.1,1.1 C35.2,18.3,35.7,18.8,36.3,18.8z"/> </g> <g> <path class="st3" d="M36.3,27.6h8.8c0.6,0,1.1-0.5,1.1-1.1c0-0.6-0.5-1.1-1.1-1.1h-8.8c-0.6,0-1.1,0.5-1.1,1.1 C35.2,27.1,35.7,27.6,36.3,27.6z"/> </g> <g> <path class="st3" d="M36.3,23.2h15.6c0.6,0,1.1-0.5,1.1-1.1c0-0.6-0.5-1.1-1.1-1.1H36.3c-0.6,0-1.1,0.5-1.1,1.1 C35.2,22.7,35.7,23.2,36.3,23.2z"/> </g> <g> <path class="st3" d="M36.3,32h15.6c0.6,0,1.1-0.5,1.1-1.1c0-0.6-0.5-1.1-1.1-1.1H36.3c-0.6,0-1.1,0.5-1.1,1.1 C35.2,31.5,35.7,32,36.3,32z"/> </g> </g> </g> </g> <g id="_x35_-Bag"/> <g id="_x34_-Exam"/> <g id="_x33_-Book"/> <g id="_x32_-Ruler"/> <g id="_x31_-Building"/> </g>
</svg>